HIERARCHY
ROOT SpineBase
{
  OFFSET 0.000000 0.000000 0.000000
  CHANNELS 6 Xposition Yposition Zposition Zrotation Xrotation Yrotation
  JOINT SpineMid
  {
    OFFSET 0.000000 33.249679 0.000000
    CHANNELS 3 Zrotation Xrotation Yrotation
    JOINT SpineShoulder
    {
      OFFSET -0.315790 24.740266 -0.651624
      CHANNELS 3 Zrotation Xrotation Yrotation
      JOINT Neck
      {
        OFFSET -0.226213 8.180052 -0.502330
        CHANNELS 3 Zrotation Xrotation Yrotation
        JOINT Head
        {
          OFFSET -6.283062 12.008107 6.364624
          CHANNELS 3 Zrotation Xrotation Yrotation
          End Site
          {
            OFFSET 0 0 0
          }
        }
      }
      JOINT ShoulderLeft
      {
        OFFSET -13.017380 -9.121675 -10.533476
        CHANNELS 3 Zrotation Xrotation Yrotation
        JOINT ElbowLeft
        {
          OFFSET 3.801653 -31.966935 -5.223025
          CHANNELS 3 Zrotation Xrotation Yrotation
          JOINT WristLeft
          {
            OFFSET -4.996230 -21.859985 7.242275
            CHANNELS 3 Zrotation Xrotation Yrotation
            JOINT HandLeft
            {
              OFFSET 3.323377 -2.787433 -0.404905
              CHANNELS 3 Zrotation Xrotation Yrotation
              JOINT HandTipLeft
              {
                OFFSET -1.200473 -4.342253 -0.932076
                CHANNELS 3 Zrotation Xrotation Yrotation
                End Site
                {
                  OFFSET 0 0 0
                }
              }
              JOINT ThumbLeft
              {
                OFFSET -3.637893 0.116038 -0.319295
                CHANNELS 3 Zrotation Xrotation Yrotation
                End Site
                {
                  OFFSET 0 0 0
                }
              }
            }
          }
        }
      }
      JOINT ShoulderRight
      {
        OFFSET 0.233071 -6.377845 -12.780818
        CHANNELS 3 Zrotation Xrotation Yrotation
        JOINT ElbowRight
        {
          OFFSET -3.819487 -24.492399 -4.108073
          CHANNELS 3 Zrotation Xrotation Yrotation
          JOINT WristRight
          {
            OFFSET -4.960839 -22.834040 4.089910
            CHANNELS 3 Zrotation Xrotation Yrotation
            JOINT HandRight
            {
              OFFSET -0.577006 -8.520145 3.103210
              CHANNELS 3 Zrotation Xrotation Yrotation
              JOINT HandTipRight
              {
                OFFSET -3.059915 -7.517329 0.048546
                CHANNELS 3 Zrotation Xrotation Yrotation
                End Site
                {
                  OFFSET 0 0 0
                }
              }
              JOINT ThumbRight
              {
                OFFSET 3.747655 0.424161 -3.022019
                CHANNELS 3 Zrotation Xrotation Yrotation
                End Site
                {
                  OFFSET 0 0 0
                }
              }
            }
          }
        }
      }
    }
  }
  JOINT HipLeft
  {
    OFFSET -8.140422 0.279674 -0.320356
    CHANNELS 3 Zrotation Xrotation Yrotation
    JOINT KneeLeft
    {
      OFFSET 13.906447 -39.939246 1.363203
      CHANNELS 3 Zrotation Xrotation Yrotation
      JOINT AnkleLeft
      {
        OFFSET 19.678985 -29.562161 8.652302
        CHANNELS 3 Zrotation Xrotation Yrotation
        JOINT FootLeft
        {
          OFFSET -10.031788 -6.149598 -10.142063
          CHANNELS 3 Zrotation Xrotation Yrotation
          End Site
          {
            OFFSET 0 0 0
          }
        }
      }
    }
  }
  JOINT HipRight
  {
    OFFSET 5.478100 1.153955 -5.979071
    CHANNELS 3 Zrotation Xrotation Yrotation
    JOINT KneeRight
    {
      OFFSET -2.769118 -45.417978 5.933327
      CHANNELS 3 Zrotation Xrotation Yrotation
      JOINT AnkleRight
      {
        OFFSET 9.550781 -28.970813 -3.039545
        CHANNELS 3 Zrotation Xrotation Yrotation
        JOINT FootRight
        {
          OFFSET -2.576156 -4.477545 -13.070417
          CHANNELS 3 Zrotation Xrotation Yrotation
          End Site
          {
            OFFSET 0 0 0
          }
        }
      }
    }
  }
}
MOTION
Frames: 9
Frame Time: 0.033333
129.986775 77.961258 317.920836 0.909907 0.471770 23.041980 0.019263 0.026186 -23.015361 0.028201 0.013647 0.041793 -2.592589 -0.810671 0.627567 0.000000 0.000000 0.000000 -0.946233 -0.515872 -0.076631 -0.000000 0.000000 0.000000 3.457794 -7.150138 -8.575072 -3.974075 -0.597366 11.146976 0.000000 0.000000 0.000000 0.000000 0.000000 0.000000 -0.946233 -0.515872 -0.076631 1.848700 0.593939 0.193394 -2.207507 -1.654831 -0.275299 -0.512383 -2.705443 1.566207 0.000000 0.000000 0.000000 0.000000 0.000000 0.000000 1.714351 -3.775936 -23.623811 -6.193369 4.748894 1.931238 -0.894935 0.130517 -0.329033 0.000000 0.000000 0.000000 -1.021962 -0.077944 -23.046421 1.308767 0.149792 -0.089299 5.655983 -29.895075 -4.252148 0.000000 0.000000 0.000000
129.973950 77.988042 317.964601 0.953866 0.475164 22.622161 0.031797 0.028533 -22.594204 0.033094 0.009883 0.044117 -2.212916 -0.678153 0.467077 0.000000 0.000000 0.000000 -1.006028 -0.522294 -0.080807 -0.000000 0.000000 0.000000 3.702173 -5.970217 -7.235485 -4.477892 -2.036269 9.938582 0.000000 0.000000 0.000000 0.000000 0.000000 0.000000 -1.006028 -0.522294 -0.080807 2.065336 0.952293 0.146702 -2.909231 -2.139033 -0.426504 1.863514 -2.712679 1.834063 0.000000 0.000000 0.000000 0.000000 0.000000 0.000000 1.382790 -3.352068 -23.154413 -5.148081 4.117343 1.690906 -1.842392 0.861453 -0.115484 0.000000 0.000000 0.000000 -1.063243 -0.071650 -22.626781 1.319073 0.145610 -0.091713 5.866018 -30.925682 -4.225239 0.000000 0.000000 0.000000
129.949526 78.052105 318.025669 0.986403 0.445076 22.159546 0.069611 0.047521 -22.130045 0.042471 0.010875 0.046900 -2.130572 -0.622365 0.413415 0.000000 0.000000 0.000000 -1.076157 -0.524726 -0.085525 -0.000000 0.000000 0.000000 3.105590 -5.007385 -6.124339 -3.432824 -0.390314 7.879011 0.000000 0.000000 0.000000 0.000000 0.000000 0.000000 -1.076157 -0.524726 -0.085525 2.248446 1.284512 0.099115 -3.422184 -2.587209 -0.523439 3.025697 -2.261336 1.819437 0.000000 0.000000 0.000000 0.000000 0.000000 0.000000 1.633352 -3.620496 -22.736183 -5.845716 4.429446 1.772453 -1.302194 0.603858 -0.211795 0.000000 0.000000 0.000000 -0.394082 0.423006 -22.147660 0.854806 -0.596962 -0.114014 4.856211 -25.884444 -4.420400 0.000000 0.000000 0.000000
129.930708 78.086884 318.073204 1.021180 0.424905 21.726457 0.098848 0.059898 -21.695527 0.041675 0.004920 0.048794 -1.922624 -0.629612 0.264896 0.000000 0.000000 0.000000 -1.133274 -0.520420 -0.089134 -0.000000 0.000000 0.000000 2.022679 -4.185183 -5.127837 -1.830745 0.771332 6.109524 0.000000 0.000000 0.000000 0.000000 0.000000 0.000000 -1.133274 -0.520420 -0.089134 2.556273 1.561985 0.084332 -4.221226 -2.825797 -0.731963 4.413750 -1.980103 1.884337 0.000000 0.000000 0.000000 0.000000 0.000000 0.000000 1.831074 -3.767496 -22.319931 -6.279621 4.543608 1.783133 -0.653628 0.132658 -0.228101 0.000000 0.000000 0.000000 -0.355548 0.597336 -21.724549 0.827868 -0.865428 -0.135039 3.113498 -16.505533 -4.452839 0.000000 0.000000 0.000000
129.938261 78.076120 318.074649 1.086987 0.452647 21.257165 0.092134 0.049131 -21.224770 0.041406 -0.006255 0.051056 -1.197259 -0.523768 -0.093483 0.000000 0.000000 0.000000 -1.197259 -0.523768 -0.093483 -0.000000 0.000000 0.000000 1.956207 -3.340521 -4.142466 -1.796807 0.529112 4.949994 0.000000 0.000000 0.000000 0.000000 0.000000 0.000000 -0.320785 -0.214391 -0.283371 1.877803 1.456039 0.278109 -4.801555 -2.971816 -0.893200 4.930477 -2.014890 2.025460 0.000000 0.000000 0.000000 0.000000 0.000000 0.000000 1.899595 -3.915380 -21.874780 -6.563550 4.605049 1.770251 -0.811170 0.355568 -0.009314 0.000000 0.000000 0.000000 -0.459184 0.704414 -21.270742 0.884929 -1.127889 -0.170909 1.189055 -5.917087 -4.047015 0.000000 0.000000 0.000000
129.970190 78.022700 318.042701 1.185791 0.527674 21.033992 0.037004 0.015299 -21.000524 0.052220 -0.010751 0.054156 -1.267949 -0.542460 -0.098872 0.000000 0.000000 0.000000 -1.267949 -0.542460 -0.098872 -0.000000 0.000000 0.000000 2.403441 -2.158693 -2.814669 0.545061 0.159391 2.771334 0.000000 0.000000 0.000000 0.000000 0.000000 0.000000 -0.201642 -0.198910 -0.324802 1.830632 1.525716 0.315664 -5.234499 -2.743568 -1.038587 5.541454 -2.518704 2.265632 0.000000 0.000000 0.000000 0.000000 0.000000 0.000000 1.856225 -4.056539 -21.671388 -6.735601 4.612273 1.737423 -0.639825 0.162668 0.303552 0.000000 0.000000 0.000000 -0.715402 0.694575 -21.064359 1.015905 -1.270536 -0.206543 0.774220 -3.459818 -3.904180 0.000000 0.000000 0.000000
130.008815 77.940630 317.941515 1.304105 0.677720 21.010501 -0.050900 -0.039437 -20.976384 0.087004 0.001238 0.059676 -1.358829 -0.621559 -0.108008 0.000000 0.000000 0.000000 -1.358829 -0.621559 -0.108008 -0.000000 0.000000 0.000000 2.514697 -1.197605 -1.724343 0.115046 -2.087199 2.161449 0.000000 0.000000 0.000000 0.000000 0.000000 0.000000 -0.138714 -0.175338 -0.374245 1.727831 1.359781 0.385653 -5.411939 -2.404273 -1.122394 4.089916 -2.869076 2.329127 0.000000 0.000000 0.000000 0.000000 0.000000 0.000000 1.663726 -4.256815 -21.680938 -6.740961 4.618794 1.716647 -0.607970 0.064885 0.601133 0.000000 0.000000 0.000000 -1.460381 -0.164951 -21.020317 1.238008 -0.556251 -0.306328 -0.373065 2.830517 -3.387268 0.000000 0.000000 0.000000
130.110098 77.715844 317.771686 1.487823 0.900204 20.819440 -0.180934 -0.126160 -20.784858 0.121103 0.014020 0.066920 -1.486060 -0.729178 -0.120881 0.000000 0.000000 0.000000 -1.486060 -0.729178 -0.120881 -0.000000 0.000000 0.000000 2.696914 -0.770796 -1.258552 1.729103 -1.525989 1.023956 0.000000 0.000000 0.000000 0.000000 0.000000 0.000000 -0.110612 -0.159657 -0.430305 1.599162 1.078165 0.478683 -5.684270 -1.847055 -1.267702 2.641535 -3.789144 2.608405 0.000000 0.000000 0.000000 0.000000 0.000000 0.000000 1.179821 -4.302837 -21.510765 -6.206227 4.353220 1.590280 -0.715916 0.155695 0.756354 0.000000 0.000000 0.000000 -1.710633 -0.312360 -20.835792 1.166498 -0.739610 -0.357732 -0.415917 3.598178 -3.305317 0.000000 0.000000 0.000000
130.285696 77.414552 317.644033 1.753754 1.034794 20.974376 -0.306810 -0.132584 -20.939027 0.139955 0.041881 0.075188 -1.162159 -1.337812 -0.650396 0.000000 0.000000 0.000000 -1.656486 -0.839529 -0.137077 -0.000000 0.000000 0.000000 3.100277 -0.263502 -0.734046 5.026224 0.023870 -0.967635 0.000000 0.000000 0.000000 0.000000 0.000000 0.000000 0.130018 -0.144468 -0.530733 0.804530 1.014105 0.485918 -5.668949 -1.679920 -1.340519 1.648798 -3.657717 2.549712 0.000000 0.000000 0.000000 0.000000 0.000000 0.000000 0.838987 -4.526844 -21.730405 -6.205298 4.425450 1.602215 -0.294740 -0.124496 0.696669 0.000000 0.000000 0.000000 -2.007953 -0.338067 -20.996139 1.096488 -0.897254 -0.401323 0.190742 1.392545 -3.651228 0.000000 0.000000 0.000000
